<?xml version="1.0" standalone="no"?>
<!DOCTYPE svg PUBLIC "-//W3C//DTD SVG 20010904//EN"
 "http://www.w3.org/TR/2001/REC-SVG-20010904/DTD/svg10.dtd">
<svg version="1.0" xmlns="http://www.w3.org/2000/svg"
 width="1024.000000pt" height="1024.000000pt" viewBox="0 0 1024.000000 1024.000000"
 preserveAspectRatio="xMidYMid meet">

<g transform="translate(0.000000,1024.000000) scale(0.100000,-0.100000)"
fill="#000000" stroke="none">
<path d="M6 10232 c-2 -4 -5 -2308 -5 -5120 l-2 -5112 5120 0 5121 0 0 5120 0
5120 -5115 0 c-2813 -1 -5116 -4 -5119 -8z m7318 -3331 c40 -16 104 -79 116
-116 15 -46 -9 -98 -63 -133 l-41 -27 -245 3 c-247 3 -301 7 -333 24 -26 13
-22 29 18 89 69 102 126 151 199 170 39 11 315 2 349 -10z m-4202 -30 c26 -29
28 -37 28 -120 l0 -88 -41 -12 c-23 -7 -81 -15 -129 -18 -79 -5 -92 -4 -123
16 -39 24 -77 91 -77 134 0 32 32 70 85 102 36 22 49 24 134 21 92 -3 96 -4
123 -35z m806 -248 c-4 -159 -6 -499 -3 -758 2 -258 4 -562 4 -674 l1 -203
192 188 c106 104 226 223 267 264 300 305 854 861 932 937 51 50 176 174 275
275 100 100 201 200 225 220 l44 37 363 1 364 0 -43 -52 c-69 -87 -1355 -1354
-1782 -1757 -78 -74 -146 -141 -151 -149 -4 -8 -4 -22 0 -33 5 -10 122 -137
260 -281 138 -145 330 -353 427 -463 97 -110 238 -267 313 -350 209 -230 361
-400 449 -505 44 -51 103 -119 130 -148 l50 -55 -90 6 c-49 4 -215 10 -368 13
l-278 6 -103 107 c-56 58 -167 176 -245 261 -308 334 -912 967 -940 984 -11 7
-20 2 -36 -19 -50 -70 -142 -174 -190 -217 -29 -26 -58 -61 -65 -77 -9 -23
-11 -147 -9 -531 l4 -500 -262 0 -263 0 0 1880 0 1880 268 0 267 0 -7 -287z
m429 251 c13 -16 23 -41 23 -56 0 -27 -57 -111 -94 -138 -51 -37 -106 -34
-125 6 -18 41 -14 144 8 181 22 35 44 43 115 38 41 -2 54 -8 73 -31z m1143 29
c0 -24 -79 -108 -274 -291 -298 -281 -936 -936 -1049 -1077 l-39 -50 4 420 c2
243 8 427 13 435 6 9 89 90 185 180 96 90 182 174 190 186 28 41 110 123 162
163 l53 41 378 0 c207 0 377 -3 377 -7z m-2401 -479 l61 -7 0 -147 0 -148
-107 -4 c-60 -2 -125 -1 -146 3 -71 12 -127 88 -127 170 0 36 6 48 40 80 22
21 55 43 73 48 39 11 123 13 206 5z m4264 -16 c15 -6 43 -29 62 -51 29 -34 35
-49 35 -86 0 -61 -29 -107 -83 -131 -40 -19 -72 -20 -610 -20 -506 0 -568 2
-574 16 -9 25 11 52 130 174 l112 115 450 -3 c297 -2 459 -6 478 -14z m-1365
-624 c68 -109 90 -155 156 -321 31 -79 68 -167 82 -195 14 -29 68 -148 119
-264 52 -116 120 -265 153 -330 33 -66 84 -175 115 -244 30 -69 94 -205 141
-302 47 -98 118 -251 157 -340 40 -90 84 -185 99 -213 77 -141 210 -409 210
-422 0 -14 -16 -15 -142 -7 -79 5 -214 9 -301 9 l-158 0 -33 70 c-17 39 -38
86 -45 105 -8 19 -65 142 -128 272 -62 131 -122 261 -134 290 -11 29 -36 81
-55 114 -18 34 -58 115 -88 180 -30 66 -91 198 -136 294 -45 96 -125 270 -177
385 -52 116 -98 214 -102 218 -4 4 -23 -21 -41 -55 -18 -35 -70 -119 -115
-188 -45 -69 -95 -147 -110 -175 -16 -27 -53 -83 -83 -123 -51 -67 -56 -71
-72 -57 -11 10 -15 25 -12 40 5 27 -50 94 -216 263 -75 76 -97 93 -116 90 -13
-3 -32 1 -42 9 -16 12 7 38 277 308 162 163 366 367 454 453 244 240 244 240
251 269 l7 27 18 -40 c9 -22 39 -76 67 -120z m-2840 -59 l-3 -155 -90 -2
c-184 -5 -199 -1 -251 67 -52 69 -41 157 27 206 42 29 81 36 212 38 l109 1 -4
-155z m4214 129 c30 -16 64 -59 80 -104 17 -51 -6 -116 -55 -151 l-40 -29
-504 0 -503 0 -10 23 c-22 56 -74 196 -85 234 l-13 43 552 -1 c445 -1 556 -4
578 -15z m-4218 -697 l2 -158 -131 3 c-125 3 -133 4 -167 30 -50 38 -82 107
-73 156 8 42 78 117 117 125 13 3 74 4 137 3 l114 -1 1 -158z m4226 130 c19
-12 42 -36 51 -52 24 -40 34 -85 20 -85 -6 0 -8 6 -5 13 5 15 -30 60 -39 51
-4 -4 -2 -15 3 -25 11 -19 4 -49 -12 -49 -5 0 -6 5 -3 10 3 6 0 10 -7 10 -10
0 -9 3 2 11 10 7 11 12 4 15 -7 3 -10 13 -7 24 4 14 -7 26 -42 48 -31 19 -43
31 -34 35 8 3 -177 6 -410 6 -233 0 -426 3 -429 6 -3 3 193 5 435 5 440 0 440
0 473 -23z m-674 -270 c52 2 94 -1 94 -6 0 -5 -44 -9 -98 -10 l-99 -2 -19 48
c-28 70 -28 74 2 18 l26 -51 94 3z m723 47 c-6 -7 -30 -22 -53 -33 -39 -19
-59 -21 -242 -19 l-199 2 200 6 c118 3 210 10 225 17 14 7 21 12 16 12 -20 2
17 29 39 29 20 0 23 -3 14 -14z m-559 -55 c0 -3 -13 -6 -30 -5 -16 1 -30 4
-30 9 0 4 14 6 30 5 17 -1 30 -5 30 -9z m-3717 -401 c-3 -84 -6 -153 -7 -154
0 0 -60 2 -133 5 -129 6 -132 7 -163 36 -70 67 -81 141 -28 201 48 55 76 63
215 64 l121 0 -5 -152z m4200 131 c31 -16 67 -50 78 -74 9 -17 7 -17 -10 3
-10 12 -22 22 -26 22 -4 0 -19 9 -35 20 -15 11 -30 17 -34 13 -3 -3 -6 -1 -6
5 0 8 -62 12 -217 15 l-218 2 223 3 c150 1 230 -2 245 -9z m-563 -103 c0 -12
-5 -7 -19 24 -11 24 -11 24 3 6 9 -11 16 -24 16 -30z m46 -96 l27 -69 136 -4
136 -3 -141 -2 -140 -2 -31 80 c-17 44 -27 77 -23 75 5 -3 21 -36 36 -75z
m577 -33 c-10 -17 -87 -47 -118 -46 -26 1 -25 2 10 9 21 4 41 13 43 19 2 6 15
11 28 11 14 0 23 4 20 8 -3 5 1 9 9 9 8 0 12 -5 8 -10z m-1780 -44 c-13 -2
-35 -2 -50 0 -16 2 -5 4 22 4 28 0 40 -2 28 -4z m-2485 -258 c-3 -3 -61 -6
-129 -8 -134 -2 -161 -11 -194 -61 -20 -31 -27 -83 -12 -99 7 -7 13 -19 15
-27 6 -28 21 -34 55 -23 32 10 34 9 29 -11 -5 -18 -3 -19 10 -8 27 22 69 -12
51 -40 -3 -7 -1 -8 6 -4 6 4 10 15 9 24 -2 12 3 16 20 14 13 -2 22 2 22 10 0
7 10 2 21 -12 11 -14 18 -20 15 -14 -4 7 7 11 32 10 37 -1 37 0 43 44 5 39 6
35 7 -27 l2 -73 -129 0 c-117 0 -131 2 -162 23 -80 54 -99 151 -44 223 41 54
72 63 214 64 68 0 122 -2 119 -5z m2607 -1 c-46 -7 -185 -9 -185 -2 0 5 46 7
103 7 56 -1 93 -3 82 -5z m1288 -1 c-13 -2 -33 -2 -45 0 -13 2 -3 4 22 4 25 0
35 -2 23 -4z m-3896 -120 c-2 -16 -4 -3 -4 27 0 30 2 43 4 28 2 -16 2 -40 0
-55z m2761 -163 c86 0 94 2 99 20 5 19 6 20 19 3 7 -10 14 -21 14 -25 0 -5
-53 -8 -119 -8 l-118 0 -27 43 -27 42 33 -38 33 -37 93 0z m-1670 -3 l77 -3
-85 -2 -86 -2 5 38 6 37 3 -32 3 -32 77 -4z m3172 38 c0 -13 -68 -45 -95 -44
-27 0 -26 2 17 17 26 9 50 20 54 25 8 8 24 10 24 2z m-2920 -25 c0 -5 -19 -10
-42 -9 -37 1 -39 2 -18 9 36 12 60 12 60 0z m2670 -23 l45 -4 -52 -1 c-45 -2
-53 1 -53 16 0 11 3 13 8 5 4 -6 28 -13 52 -16z m-2777 6 c-13 -2 -33 -2 -45
0 -13 2 -3 4 22 4 25 0 35 -2 23 -4z m65 -260 c-10 -2 -26 -2 -35 0 -10 3 -2
5 17 5 19 0 27 -2 18 -5z m135 0 c-13 -2 -33 -2 -45 0 -13 2 -3 4 22 4 25 0
35 -2 23 -4z m2664 -15 c-3 -8 -6 -5 -6 6 -1 11 2 17 5 13 3 -3 4 -12 1 -19z
m-4347 0 c-110 -31 -140 -162 -55 -237 31 -27 35 -28 156 -29 87 -1 126 2 131
11 5 8 8 7 8 -5 0 -16 -13 -18 -138 -18 l-138 0 -32 33 c-61 63 -65 152 -9
208 33 34 61 48 92 47 11 0 4 -4 -15 -10z m4396 -112 c9 -15 14 -29 11 -32 -8
-8 -57 91 -56 113 0 10 6 2 14 -19 7 -20 21 -48 31 -62z m44 -92 c6 -14 20
-28 31 -31 16 -4 18 -8 7 -14 -22 -14 -27 -11 -43 27 -17 40 -17 44 -10 44 3
0 10 -12 15 -26z m-1030 -34 c0 -5 -18 -10 -40 -10 -22 0 -40 5 -40 10 0 6 18
10 40 10 22 0 40 -4 40 -10z"/>
<path d="M6410 6375 c-11 -13 -10 -14 4 -9 9 3 16 10 16 15 0 13 -6 11 -20 -6z"/>
<path d="M6339 6303 l-34 -38 38 34 c34 33 42 41 34 41 -2 0 -19 -17 -38 -37z"/>
<path d="M6260 5845 c0 -2 5 -16 12 -30 16 -35 38 -32 38 5 0 25 -4 30 -25 30
-14 0 -25 -2 -25 -5z"/>
<path d="M7280 5749 c0 -18 -3 -24 -17 -34 -8 -6 -11 -18 -7 -28 6 -18 25 -22
38 -10 4 4 21 6 39 5 18 -1 46 2 62 8 30 10 30 10 -7 7 -34 -3 -38 -1 -38 21
0 21 -2 22 -15 12 -12 -10 -15 -10 -15 3 0 8 -9 17 -20 20 -11 3 -20 1 -20 -4z
m-5 -49 c3 -5 1 -10 -4 -10 -6 0 -11 5 -11 10 0 6 2 10 4 10 3 0 8 -4 11 -10z"/>
<path d="M6733 5693 c0 -7 4 -10 9 -6 5 3 22 9 36 13 25 8 24 8 -9 7 -20 -1
-36 -7 -36 -14z"/>
<path d="M6754 5675 c-18 -14 -18 -14 4 -8 12 3 22 9 22 14 0 12 -3 11 -26 -6z"/>
<path d="M6750 5639 c0 -5 5 -7 10 -4 6 3 10 8 10 11 0 2 -4 4 -10 4 -5 0 -10
-5 -10 -11z"/>
<path d="M2940 4720 c0 -11 -4 -20 -10 -20 -5 0 -10 7 -10 15 0 8 -8 15 -18
15 -24 0 -62 -28 -62 -46 0 -8 -5 -14 -11 -14 -15 0 -7 -43 10 -48 8 -3 11 0
7 7 -4 6 -2 11 3 11 6 0 11 -9 11 -21 0 -13 -4 -18 -12 -13 -6 4 -8 3 -5 -3 5
-8 49 -10 67 -3 3 1 14 2 25 3 16 0 17 1 3 4 -10 3 -18 9 -18 14 0 15 40 10
56 -6 25 -24 34 -17 18 15 -12 22 -12 34 -4 50 12 22 5 44 -11 35 -5 -4 -9 1
-9 9 0 9 -7 16 -15 16 -8 0 -15 -9 -15 -20z m-10 -74 c0 -2 -7 -7 -16 -10 -8
-3 -12 -2 -9 4 6 10 25 14 25 6z m-20 -30 c0 -3 -4 -8 -10 -11 -5 -3 -10 -1
-10 4 0 6 5 11 10 11 6 0 10 -2 10 -4z"/>
<path d="M2988 4733 c7 -3 16 -2 19 1 4 3 -2 6 -13 5 -11 0 -14 -3 -6 -6z"/>
<path d="M3005 4649 c-4 -6 -4 -13 -1 -16 3 -4 6 -1 6 6 0 8 6 11 16 7 8 -3
12 -2 9 4 -8 13 -22 13 -30 -1z"/>
<path d="M3060 4600 c0 -5 5 -10 11 -10 5 0 7 5 4 10 -3 6 -8 10 -11 10 -2 0
-4 -4 -4 -10z"/>
</g>
</svg>
